<svg width="20" height="20" viewBox="0 0 20 20" fill="none" xmlns="http://www.w3.org/2000/svg">
<g clip-path="url(#clip0_25_275)">
<path d="M11.1719 9.81494V9.83902C11.1738 9.8311 11.1738 9.82285 11.1719 9.81494ZM11.1719 9.81494V9.83902C11.1738 9.8311 11.1738 9.82285 11.1719 9.81494Z" fill="#011838"/>
<path d="M19.1923 9.81486C19.2296 9.56971 19.2482 9.32208 19.2479 9.07412C19.2438 8.08904 18.9488 7.12713 18.3999 6.30913C17.851 5.49113 17.0727 4.85349 16.1627 4.47624C15.2528 4.09899 14.2516 3.99895 13.285 4.18867C12.3183 4.37839 11.4293 4.84942 10.7294 5.54264C10.1435 5.31076 9.5187 5.19321 8.88864 5.19634C8.50081 5.19596 8.11426 5.24071 7.73678 5.32967L5.91641 0.598192V0.581526C5.87514 0.49435 5.8015 0.426713 5.71113 0.392996C5.62077 0.35928 5.52081 0.362144 5.43253 0.40098C5.34424 0.439816 5.27459 0.51156 5.23838 0.600956C5.20217 0.690351 5.20226 0.790345 5.23864 0.879674L7.2553 5.46856C7.24927 5.44785 7.23849 5.42883 7.22382 5.41301L3.25345 0.522266L3.24419 0.509303C3.21197 0.472825 3.17288 0.443051 3.12915 0.42168C3.08542 0.40031 3.03791 0.387761 2.98933 0.384752C2.94075 0.381743 2.89205 0.388331 2.84602 0.404141C2.79999 0.419951 2.75752 0.444673 2.72104 0.476896C2.64737 0.541972 2.60257 0.633649 2.59649 0.731758C2.59348 0.780337 2.60007 0.829033 2.61588 0.875065C2.63169 0.921098 2.65641 0.963566 2.68864 1.00004L6.8016 5.65004C6.62095 5.73147 6.44533 5.82361 6.27567 5.92597C5.14618 5.92618 4.05055 6.31165 3.16974 7.01871C2.28894 7.72578 1.67567 8.71214 1.43123 9.81486H0.740488H0.370117V10.1852C0.371185 11.7773 0.898313 13.3245 1.86953 14.5861C2.84074 15.8476 4.2016 16.7529 5.74049 17.1612V18.1482C5.74049 19.0075 6.11086 19.6297 6.64049 19.6297H13.359C13.8812 19.6297 14.259 19.0075 14.259 18.1482V17.1612C15.7979 16.7529 17.1588 15.8476 18.13 14.5861C19.1012 13.3245 19.6283 11.7773 19.6294 10.1852V9.81486H19.1923ZM14.259 4.82782C15.3845 4.83075 16.463 5.27901 17.259 6.07466C18.055 6.87031 18.5037 7.94866 18.5072 9.07412C18.508 9.32249 18.4863 9.57042 18.4423 9.81486H17.8312C17.9829 9.07697 17.9028 8.31022 17.6019 7.6196C17.301 6.92899 16.794 6.34827 16.1502 5.95696C15.5065 5.56566 14.7576 5.3829 14.006 5.43371C13.2543 5.48451 12.5368 5.76641 11.9516 6.24079C11.7878 6.11444 11.6165 5.99817 11.4386 5.89264C12.2175 5.20573 13.2205 4.82706 14.259 4.82782ZM14.259 6.76671C13.7711 6.76703 13.2959 6.92198 12.9016 7.2093C12.7833 7.04693 12.654 6.89287 12.5146 6.74819C13.0167 6.36856 13.6295 6.16428 14.259 6.16671C14.7037 6.16758 15.1423 6.27025 15.5412 6.46686C15.94 6.66346 16.2886 6.94878 16.5601 7.30094C16.8317 7.65311 17.019 8.06277 17.1077 8.49852C17.1964 8.93428 17.1842 9.38456 17.072 9.81486H16.4442C16.5259 9.57648 16.5672 9.32612 16.5664 9.07412C16.5649 8.46261 16.3214 7.87656 15.889 7.44416C15.4566 7.01175 14.8705 6.76818 14.259 6.76671ZM15.8257 9.07412C15.8267 9.33261 15.763 9.58725 15.6405 9.81486H13.8701C13.8196 9.12204 13.624 8.44758 13.296 7.83523C13.571 7.62048 13.9101 7.50438 14.259 7.5056C14.6742 7.50755 15.0719 7.67349 15.3653 7.96728C15.6587 8.26106 15.8242 8.65889 15.8257 9.07412ZM7.97197 6.03523C8.27599 5.96794 8.58651 5.93441 8.89789 5.93523C9.51062 5.93314 10.1163 6.06591 10.672 6.32412C11.055 6.49741 11.4091 6.7285 11.722 7.0093C12.5343 7.7286 13.0378 8.73357 13.1275 9.81486H12.5257C12.4326 8.91508 12.0093 8.08174 11.3375 7.47597C10.6657 6.8702 9.79321 6.53502 8.88864 6.53523C8.81641 6.53523 8.7479 6.53523 8.68493 6.53523C8.42272 6.3928 8.14814 6.27441 7.86456 6.18153C7.79234 6.15745 7.72012 6.13523 7.64604 6.11486C7.75345 6.08708 7.86271 6.0593 7.97197 6.03523ZM11.1757 9.83893V9.81486C11.1363 9.6353 11.0855 9.4584 11.0238 9.28523L11.009 9.2593C10.794 8.76938 10.4155 8.36933 9.93825 8.12749C9.46099 7.88566 8.91457 7.81704 8.39234 7.93338C8.16866 7.77593 7.92756 7.64481 7.67382 7.54264C7.97968 7.40273 8.30727 7.31629 8.64234 7.28708H8.65345C8.72567 7.28708 8.80345 7.28708 8.89234 7.28708C9.59813 7.28717 10.2799 7.54349 10.8109 8.00843C11.3419 8.47336 11.686 9.11527 11.7794 9.81486H11.172C11.1751 9.82248 11.1764 9.83073 11.1757 9.83893ZM10.4053 9.81486H9.77938C9.64456 9.38485 9.42899 8.98448 9.14419 8.63523C9.40039 8.6789 9.64194 8.78482 9.84762 8.94369C10.0533 9.10255 10.2168 9.30949 10.3238 9.54634C10.346 9.61301 10.3683 9.67968 10.3868 9.74634C10.3942 9.76856 10.3997 9.79079 10.4053 9.81486ZM7.38678 8.88893C6.85051 8.60235 6.22284 8.53884 5.64003 8.7122C5.05722 8.88555 4.56629 9.28177 4.27382 9.81486H3.60715C3.82679 9.28233 4.19958 8.82699 4.67827 8.50655C5.15695 8.1861 5.72 8.01498 6.29604 8.01486C6.43349 8.01491 6.57079 8.02357 6.70715 8.04078C6.71762 8.04182 6.72817 8.04182 6.73864 8.04078C7.23523 8.11747 7.70362 8.32107 8.09845 8.63187C8.49329 8.94267 8.80118 9.35015 8.99234 9.81486H8.33308C8.11435 9.4208 7.78551 9.09904 7.38678 8.88893ZM7.40715 9.81486H5.18493C5.33066 9.66861 5.50382 9.55257 5.69449 9.47339C5.88516 9.39421 6.08959 9.35345 6.29604 9.35345C6.5025 9.35345 6.70693 9.39421 6.8976 9.47339C7.08827 9.55257 7.26143 9.66861 7.40715 9.81486ZM4.13123 7.2593C4.79535 6.89221 5.53755 6.68904 6.29604 6.66671C6.503 6.66867 6.70962 6.68413 6.91456 6.71301C7.09208 6.73954 7.26773 6.77727 7.44049 6.82597C7.16423 6.94829 6.90422 7.10442 6.66641 7.29078C6.54789 7.27967 6.42567 7.27412 6.29604 7.27412C5.52245 7.27482 4.76909 7.52128 4.14467 7.97795C3.52025 8.43461 3.05707 9.07786 2.82197 9.81486H2.19234C2.4769 8.74093 3.17363 7.82261 4.13123 7.2593ZM12.4072 16.6667H9.62938V17.4075H13.5183V18.1482C13.5418 18.4089 13.4765 18.67 13.3331 18.8889H6.66641C6.52294 18.67 6.45769 18.4089 6.48123 18.1482V17.4075H7.40715V16.6667C5.78458 16.6202 4.23853 15.9665 3.07472 14.8349C1.9109 13.7033 1.21406 12.1762 1.12197 10.5556H18.8794C18.7848 12.208 18.0617 13.7616 16.8582 14.8979C15.6548 16.0342 14.0623 16.6671 12.4072 16.6667Z" fill="#011838"/>
<path d="M11.1753 9.83886V9.81479C11.1359 9.63522 11.0852 9.45833 11.0234 9.28516C11.0959 9.45441 11.1457 9.63249 11.1716 9.81479C11.1747 9.8224 11.176 9.83066 11.1753 9.83886Z" fill="#011838"/>
<path d="M8.8882 17.0296C8.8882 16.825 8.72238 16.6592 8.51783 16.6592C8.31328 16.6592 8.14746 16.825 8.14746 17.0296C8.14746 17.2341 8.31328 17.3999 8.51783 17.3999C8.72238 17.3999 8.8882 17.2341 8.8882 17.0296Z" fill="#011838"/>
</g>
<defs>
<clipPath id="clip0_25_275">
<rect width="20" height="20" fill="white"/>
</clipPath>
</defs>
</svg>
