<svg width="24" height="26" viewBox="0 0 24 26" fill="none" xmlns="http://www.w3.org/2000/svg">
<path d="M20.2871 18.0898C19.5163 15.0213 17.1554 12.6712 14.2725 12.1024C14.1172 12.0694 13.9661 12.1839 13.9377 12.3539C13.909 12.5235 14.0128 12.6862 14.1695 12.717C16.8353 13.2434 19.0184 15.4168 19.7312 18.254C19.7661 18.3931 19.8823 18.4844 20.0089 18.4844C20.0342 18.4844 20.0595 18.481 20.0849 18.4734C20.2385 18.4279 20.329 18.2561 20.2871 18.0898Z" fill="black"/>
<path d="M23.4247 21.7996H23.0739V21.1783C23.0739 15.0634 18.7664 10.0202 13.2703 9.42988C13.6776 9.08191 13.9405 8.5436 13.9405 7.93891C13.9405 6.89188 13.155 6.03986 12.1898 6.03986C11.2246 6.03986 10.4392 6.89188 10.4392 7.93891C10.4392 8.54688 10.7051 9.08763 11.1162 9.43537C9.57071 9.60092 8.07586 10.12 6.73249 10.9664C6.599 10.7579 6.47206 10.544 6.35888 10.3195L5.72619 9.06467C5.62547 8.86387 5.32165 8.86387 5.22093 9.06467L4.58824 10.3192C3.98284 11.5194 3.07839 12.5005 1.97223 13.1566L0.815435 13.8433C0.723161 13.8979 0.665771 14.0032 0.665771 14.1173C0.665771 14.2314 0.723161 14.3367 0.815716 14.3913L1.97251 15.0777C2.20256 15.2142 2.42159 15.3679 2.63332 15.5315C1.76676 17.2551 1.30578 19.2022 1.30578 21.1783V21.7996H0.95497C0.795742 21.7996 0.666897 21.9393 0.666897 22.1121V24.8757C0.666897 25.0484 0.795742 25.1881 0.95497 25.1881H23.4247C23.5839 25.1881 23.7128 25.0484 23.7128 24.8757V22.1121C23.7128 21.9393 23.5839 21.7996 23.4247 21.7996ZM12.1898 6.66484C12.8374 6.66484 13.3644 7.23641 13.3644 7.93891C13.3644 8.6414 12.8374 9.21267 12.1898 9.21267C11.5422 9.21267 11.0153 8.6414 11.0153 7.93891C11.0153 7.23641 11.5422 6.66484 12.1898 6.66484ZM1.55419 14.1173L2.24877 13.7047C3.45142 12.9916 4.4352 11.9247 5.09349 10.6192L5.47356 9.86573L5.85362 10.6192C6.51136 11.9244 7.49514 12.9912 8.69807 13.7047L9.39293 14.1173L8.69835 14.5296C7.49514 15.2431 6.51136 16.3099 5.85362 17.6151L5.47356 18.3689L5.09349 17.6148C4.4352 16.3096 3.45142 15.2428 2.24877 14.5296L1.55419 14.1173ZM1.88193 21.1783C1.88193 19.3408 2.30384 17.5304 3.09592 15.9205C3.69715 16.4791 4.2035 17.1523 4.58824 17.9148L5.22093 19.17C5.27129 19.2704 5.36835 19.3326 5.47356 19.3326C5.57877 19.3326 5.67583 19.2704 5.72619 19.17L6.35888 17.9148C6.964 16.7149 7.86845 15.7338 8.97461 15.0777L10.1314 14.3913C10.224 14.3367 10.2813 14.2314 10.2813 14.1173C10.2813 14.0032 10.224 13.8979 10.1317 13.8433L8.97461 13.1566C8.24722 12.7252 7.60946 12.1509 7.08428 11.4686C8.63447 10.5082 10.3928 9.99634 12.1898 9.99634C17.8737 9.99634 22.4977 15.0127 22.4977 21.1783V21.7996H1.88193V21.1783ZM23.1366 24.5632H1.24304V22.4246H23.1366V24.5632Z" fill="black"/>
<path d="M23.5687 4.26968L22.6148 3.7036C21.7109 3.16742 20.9721 2.36575 20.4778 1.38586L19.956 0.350734C19.8553 0.149934 19.5514 0.149934 19.4507 0.350734L18.9289 1.38586C18.4346 2.36605 17.6958 3.16742 16.7922 3.7036L15.838 4.26968C15.7454 4.32431 15.688 4.42959 15.688 4.54372C15.688 4.65786 15.7454 4.76314 15.838 4.81776L16.7922 5.38385C17.6956 5.92002 18.4346 6.72139 18.9289 7.70189L19.4507 8.73671C19.5011 8.83711 19.5981 8.89937 19.7034 8.89937C19.8086 8.89937 19.9056 8.83711 19.956 8.73671L20.4778 7.70189C20.9721 6.7217 21.7111 5.92002 22.6148 5.38385L23.5687 4.81776C23.6613 4.76314 23.7187 4.65786 23.7187 4.54372C23.7187 4.42959 23.6613 4.32431 23.5687 4.26968ZM22.3385 4.83577C21.3378 5.42901 20.5195 6.31674 19.9726 7.40222L19.7034 7.93565L19.4341 7.40222C18.887 6.31644 18.0689 5.42901 17.0685 4.83577L16.5765 4.54372L17.0685 4.25168C18.0692 3.65843 18.8872 2.77101 19.4341 1.68553L19.7034 1.1518L19.9726 1.68553C20.5195 2.77071 21.3376 3.65813 22.3385 4.25168L22.8302 4.54372L22.3385 4.83577Z" fill="black"/>
<path d="M9.00906 4.05184C8.39521 3.68747 7.89334 3.14305 7.55744 2.47718L7.19425 1.75698C7.09326 1.55588 6.78971 1.55649 6.68872 1.75698L6.32609 2.47718C5.99019 3.14305 5.48832 3.68747 4.87447 4.05153L4.21055 4.4452C4.118 4.50013 4.06061 4.60541 4.06061 4.71954C4.06061 4.83367 4.118 4.93896 4.21055 4.99389L4.87419 5.38725C5.48832 5.75192 5.99019 6.29634 6.32609 6.96221L6.689 7.6821C6.73935 7.7825 6.83641 7.84475 6.94162 7.84475C7.04684 7.84475 7.14389 7.7825 7.19425 7.6824L7.55744 6.96221C7.89334 6.29634 8.39521 5.75192 9.00906 5.38725L9.6727 4.99358C9.76525 4.93896 9.82264 4.83367 9.82264 4.71954C9.82264 4.60541 9.76525 4.50013 9.6727 4.4455L9.00906 4.05184ZM8.73252 4.83917C8.0219 5.26091 7.44069 5.89169 7.05218 6.66223L6.94162 6.88104L6.83135 6.66254C6.44284 5.89169 5.86163 5.26091 5.15073 4.83886L4.9493 4.71954L5.15073 4.59992C5.86163 4.17848 6.44284 3.54801 6.83163 2.77685L6.94162 2.55805L7.05218 2.77685C7.44069 3.54801 8.0219 4.17848 8.7328 4.59992L8.93423 4.71954L8.73252 4.83917Z" fill="black"/>
<path d="M2.04622 3.18338C2.20545 3.18338 2.33429 3.04361 2.33429 2.87089V1.99842H3.13887C3.2981 1.99842 3.42694 1.85865 3.42694 1.68593C3.42694 1.5132 3.2981 1.37344 3.13887 1.37344H2.33429V0.500662C2.33429 0.327938 2.20545 0.188171 2.04622 0.188171C1.88699 0.188171 1.75814 0.327938 1.75814 0.500662V1.37344H0.953845C0.794617 1.37344 0.665771 1.5132 0.665771 1.68593C0.665771 1.85865 0.794617 1.99842 0.953845 1.99842H1.75814V2.87089C1.75814 3.04361 1.88699 3.18338 2.04622 3.18338Z" fill="black"/>
<path d="M12.7554 4.37174C12.9146 4.37174 13.0434 4.23197 13.0434 4.05925V3.18647H13.8477C14.007 3.18647 14.1358 3.0467 14.1358 2.87398C14.1358 2.70125 14.007 2.56149 13.8477 2.56149H13.0434V1.68902C13.0434 1.51629 12.9146 1.37653 12.7554 1.37653C12.5961 1.37653 12.4673 1.51629 12.4673 1.68902V2.56149H11.6627C11.5035 2.56149 11.3746 2.70125 11.3746 2.87398C11.3746 3.0467 11.5035 3.18647 11.6627 3.18647H12.4673V4.05925C12.4673 4.23197 12.5961 4.37174 12.7554 4.37174Z" fill="black"/>
</svg>
