<svg width="25" height="25" viewBox="0 0 25 25" fill="none" xmlns="http://www.w3.org/2000/svg">
<g clip-path="url(#clip0_2_37)">
<path d="M9.27501 22.5774C12.7709 22.5774 15.6279 19.6795 15.7863 16.0457H2.76367C2.92211 19.6795 5.77912 22.5774 9.27501 22.5774ZM12.7096 17.4972H12.8884C13.1644 17.4972 13.3842 17.7169 13.3842 17.9929C13.3842 18.2689 13.1644 18.4887 12.8884 18.4887H12.7096C12.4336 18.4887 12.2138 18.2689 12.2138 17.9929C12.2138 17.7169 12.4285 17.4972 12.7096 17.4972ZM11.4574 19.2247H11.6363C11.9123 19.2247 12.132 19.4444 12.132 19.7204C12.132 19.9964 11.9123 20.2162 11.6363 20.2162H11.4574C11.1814 20.2162 10.9616 19.9964 10.9616 19.7204C10.9616 19.4393 11.1814 19.2247 11.4574 19.2247ZM9.99054 21.0493C9.92921 21.269 9.6941 21.4786 9.29545 21.3866C9.01946 21.4275 8.77925 21.2486 8.71791 20.9879C8.67703 20.7119 8.85591 20.4717 9.11657 20.4104C9.29545 20.3695 9.47433 20.39 9.65322 20.4513C9.92921 20.5126 10.0672 20.7937 9.99054 21.0493ZM8.4777 17.7323C8.55948 17.4767 8.85591 17.3336 9.11146 17.4358L9.19323 17.4563C9.44878 17.538 9.59189 17.8345 9.51011 18.09C9.47433 18.2996 9.11657 18.5398 8.77413 18.366C8.53903 18.2689 8.40104 17.9929 8.4777 17.7323ZM6.55599 19.2247C6.85242 19.2042 7.15397 19.3831 7.29196 19.6591C7.40951 19.8993 7.31241 20.1957 7.05175 20.3133C6.80642 20.4206 6.55599 20.2928 6.45377 20.1753C6.234 20.1344 6.07556 19.9351 6.07556 19.7204C6.06023 19.4598 6.27489 19.2247 6.55599 19.2247ZM4.51161 18.4069C4.33273 18.3098 4.21518 18.09 4.2714 17.8703C4.33273 17.6147 4.58828 17.4358 4.86938 17.4921C5.12493 17.5534 5.32425 17.7323 5.40603 17.9878C5.4878 18.2434 5.3447 18.5245 5.08915 18.6011C4.79783 18.6931 4.60872 18.55 4.51161 18.4069Z" fill="black"/>
<path d="M18.2294 16.0661H16.7983C16.6399 20.2366 13.3229 23.5894 9.29546 23.5894C5.24248 23.5894 1.95104 20.2571 1.7926 16.0661H0.341095C0.341095 21.0084 4.35318 25 9.27501 25C14.1968 25 18.2294 20.9879 18.2294 16.0661Z" fill="black"/>
<path d="M23.5856 5.54779H21.1426L21.4595 2.67034L24.2041 0.901952C24.4443 0.763957 24.5005 0.447079 24.3421 0.227308C24.2041 -0.0129057 23.8872 -0.069126 23.6674 0.0893131L20.7491 1.97014C20.6315 2.05191 20.5497 2.18991 20.5293 2.3279L20.192 5.48646C20.192 5.50691 20.192 5.52735 20.192 5.54779H10.5067L9.47433 7.86816H24.6589L23.5856 5.54779Z" fill="black"/>
<path d="M10.8798 15.0746H19.1953V16.0661C19.1953 19.9964 16.8903 23.3901 13.5784 25H22.0932L23.8821 8.85968H10.1848L10.8798 15.0746Z" fill="black"/>
</g>
<defs>
<clipPath id="clip0_2_37">
<rect width="25" height="25" fill="white"/>
</clipPath>
</defs>
</svg>
