<svg width="48" height="48" viewBox="0 0 48 48" fill="none" xmlns="http://www.w3.org/2000/svg">
<path d="M47.1115 39.2327C41.4202 36.9292 41.2037 27.0421 41.1995 26.7927V20.1596C41.1995 13.7756 36.8467 8.28604 30.6613 5.94865C30.648 2.66647 27.6652 0 24.0002 0C20.3351 0 17.3524 2.66662 17.339 5.94849C11.1538 8.28589 6.8009 13.7754 6.8009 20.1594V26.7925C6.79687 27.042 6.58021 36.9291 0.888795 39.2325C0.240451 39.495 -0.11588 40.1275 0.0340205 40.7508C0.183746 41.3742 0.798838 41.8194 1.51036 41.8194H15.9386C16.2344 43.2777 17.0038 44.6343 18.1805 45.7331C19.7434 47.1925 21.8102 47.9962 23.9999 47.9962C26.1898 47.9962 28.2566 47.1925 29.8194 45.7331C30.9962 44.6342 31.7656 43.2775 32.0612 41.8194H46.4895C47.201 41.8194 47.816 41.3743 47.9659 40.7508C48.116 40.1275 47.7598 39.4951 47.1115 39.2327ZM39.6144 34.4962C40.2127 36.1218 41.0599 37.7543 42.2612 39.1127H5.73899C6.94012 37.7544 7.78729 36.122 8.38558 34.4962H39.6144ZM24.0002 2.70686C25.658 2.70686 27.0597 3.70521 27.4983 5.06605C26.3684 4.85603 25.1984 4.74529 24.0002 4.74529C22.8019 4.74529 21.632 4.85595 20.5021 5.06605C20.9407 3.70529 22.3424 2.70686 24.0002 2.70686ZM9.82123 26.8008V20.1593C9.82123 13.1526 16.1818 7.45215 24.0002 7.45215C31.8186 7.45215 38.1791 13.1526 38.1791 20.1593V26.8119C38.1811 27.0155 38.2165 29.1551 38.8182 31.7891H9.18181C9.78386 29.1526 9.81939 27.0092 9.82123 26.8008ZM24.0002 45.2895C21.6951 45.2895 19.6834 43.8001 19.0377 41.8195H28.9625C28.3168 43.8001 26.3054 45.2895 24.0002 45.2895Z" fill="black"/>
<path d="M24.0002 9.35107C17.5028 9.35107 12.2167 14.0884 12.2167 19.9114C12.2167 20.6589 12.8928 21.2648 13.7269 21.2648C14.5609 21.2648 15.2371 20.6589 15.2371 19.9114C15.2371 15.581 19.1682 12.0579 24.0003 12.0579C24.8343 12.0579 25.5105 11.4519 25.5105 10.7045C25.5104 9.95691 24.8342 9.35107 24.0002 9.35107Z" fill="black"/>
</svg>
