<svg width="50" height="41" viewBox="0 0 50 41" fill="none" xmlns="http://www.w3.org/2000/svg">
<path d="M25 20.3919H1C1 30.935 16.0448 40 16.0448 40H25" stroke="black" stroke-width="1.6" stroke-linecap="round" stroke-linejoin="round"/>
<path d="M7.98468 22.8011C7.98468 30.5711 17.8805 36.3048 17.8805 36.3048M25 20.3918H49C49 30.9349 33.9553 40 33.9553 40H25M12.149 20.3918C10.4028 14.6272 22.0785 10.6644 32.5555 9.44035L33.5803 7.77698L37.7109 12.2042L35.4446 12.5291C34.3354 15.7438 28.7829 20.3918 28.7829 20.3918" stroke="black" stroke-width="1.6" stroke-linecap="round" stroke-linejoin="round"/>
<path d="M13.986 20.3918C14.3596 17.4243 18.2619 14.0838 33.1496 10.0741" stroke="black" stroke-width="1.6" stroke-linecap="round" stroke-linejoin="round"/>
<path d="M33.5336 10.4871C27.9034 12.9742 21.339 15.8319 16.7388 20.3918M34.6324 11.662C28.7816 18.6701 25 20.3918 25 20.3918M21.7633 20.3918C25.2919 18.5729 34.0746 11.0637 34.0746 11.0637M36.7756 11.2227L47.3499 3.6666C47.5237 3.54266 47.6681 3.3897 47.7748 3.21646C47.8815 3.04323 47.9484 2.85314 47.9717 2.65707C47.9949 2.461 47.9741 2.26282 47.9104 2.07386C47.8466 1.88491 47.7412 1.7089 47.6002 1.55592C47.4597 1.40278 47.2863 1.27557 47.09 1.18158C46.8936 1.08758 46.6782 1.02865 46.456 1.00814C46.2338 0.987635 46.0093 1.00596 45.7951 1.06207C45.581 1.11817 45.3815 1.21097 45.208 1.33513L34.6324 8.89123" stroke="black" stroke-width="1.6" stroke-linecap="round" stroke-linejoin="round"/>
<path d="M33.4648 8.88788L36.3526 11.9767" stroke="black" stroke-width="1.6" stroke-linecap="round" stroke-linejoin="round"/>
</svg>

