<svg width="48" height="48" viewBox="0 0 48 48" fill="none" xmlns="http://www.w3.org/2000/svg">
<path d="M31.3146 43.0898L42.0356 34.2695H31.3146V43.0898ZM11.2651 17.9453V10.1563H7.98586V7.75782H17.9382V10.1563H14.664V17.9688L11.2651 17.9453ZM35.5171 18.0273C34.8423 18.0351 34.1696 17.9654 33.5206 17.8203C32.9417 17.6828 32.4232 17.4218 32.0233 17.0664C31.5486 16.6126 31.2185 16.0771 31.06 15.5039C30.8152 14.6253 30.7046 13.7271 30.7306 12.8281C30.7039 11.9515 30.8214 11.0758 31.08 10.2227C31.2528 9.64813 31.5946 9.11311 32.0782 8.66016C32.4769 8.2977 32.9947 8.02753 33.5755 7.87891C34.2005 7.73322 34.85 7.66211 35.5021 7.66797C36.1429 7.66264 36.7834 7.69266 37.4187 7.75782C37.8964 7.8048 38.3699 7.87525 38.8362 7.96875C39.1567 8.03158 39.4704 8.11386 39.7746 8.21485V10.2852C39.555 10.25 39.2755 10.2109 38.9161 10.1758C38.5567 10.1406 38.1674 10.1094 37.7182 10.0859C37.269 10.0625 36.7799 10.0508 36.2558 10.0508C35.9189 10.0469 35.5829 10.0798 35.2576 10.1484C34.9847 10.2118 34.7505 10.3506 34.5987 10.5391C34.4064 10.7981 34.2841 11.0853 34.2394 11.3828C34.1539 11.8707 34.1156 12.363 34.1246 12.8555C34.1181 13.3135 34.1481 13.7714 34.2144 14.2266C34.2488 14.526 34.3555 14.8176 34.5289 15.0859C34.6766 15.2874 34.9096 15.4422 35.1877 15.5234C35.5457 15.6186 35.9228 15.6623 36.3007 15.6523C37.1842 15.6523 37.9079 15.6523 38.4619 15.6172C39.0159 15.582 39.4601 15.5664 39.7845 15.5313V17.5781C39.4607 17.6768 39.1268 17.7539 38.7863 17.8086C38.3313 17.8801 37.8713 17.931 37.4088 17.9609C36.9096 17.9961 36.2608 18.0156 35.5371 18.0156L35.5171 18.0273ZM22.9843 18.1016C22.171 18.1152 21.3648 17.9815 20.6285 17.7109C20.0189 17.4873 19.5006 17.1357 19.1311 16.6953C18.7809 16.2779 18.5967 15.7885 18.6021 15.2891C18.5925 14.946 18.6866 14.6061 18.8766 14.2969C19.0679 14.0021 19.3268 13.7373 19.6402 13.5156C19.9964 13.2536 20.3804 13.0157 20.7882 12.8047L23.6781 11.4023C23.9201 11.2961 24.123 11.1427 24.267 10.957C24.3527 10.8306 24.3989 10.69 24.4018 10.5469C24.4005 10.3894 24.3219 10.2383 24.1822 10.125C24.0883 10.0584 23.9776 10.0079 23.8572 9.97698C23.7368 9.94603 23.6095 9.93524 23.4834 9.94531C23.3112 9.94234 23.1404 9.97041 22.9843 10.0273C22.8495 10.0811 22.737 10.1638 22.6599 10.2656C22.5771 10.3741 22.5355 10.4987 22.5401 10.625C22.5443 10.8317 22.6184 11.0339 22.7547 11.2109C23.9027 12.8672 28.5195 16.4063 30.3263 17.9453H26.8924L21.7165 13.6719C21.462 13.4609 21.1825 13.2031 20.873 12.8906C20.5568 12.5709 20.2919 12.2219 20.0844 11.8516C19.8577 11.4549 19.7436 11.0244 19.75 10.5898C19.7444 10.1035 19.9047 9.62483 20.2142 9.20313C20.5308 8.78601 20.9817 8.44121 21.5219 8.20313C22.1213 7.9419 22.7973 7.80728 23.4834 7.8125C24.1257 7.79982 24.7609 7.91972 25.3252 8.16016C25.822 8.37692 26.2357 8.69389 26.523 9.07813C26.8078 9.46531 26.956 9.90481 26.9523 10.3516C26.9554 10.8067 26.8038 11.2543 26.5131 11.6484C26.1973 12.0676 25.7701 12.4286 25.2603 12.707C24.5066 13.1211 22.605 14.043 22.0959 14.5469C21.9407 14.7055 21.8629 14.9021 21.8763 15.1016C21.8699 15.2726 21.929 15.4413 22.046 15.5859C22.1687 15.725 22.3429 15.8313 22.5451 15.8906C22.7743 15.9648 23.0208 16.0007 23.2688 15.9961C23.7098 15.9943 24.1441 15.9114 24.5366 15.7539C24.977 15.5885 25.3734 15.3592 25.7045 15.0781C26.4715 14.4467 26.8925 13.6055 26.8774 12.7344H29.5876C29.5907 13.2953 29.5137 13.8548 29.358 14.4023C29.2138 14.9209 28.9644 15.4181 28.6193 15.875C28.2762 16.3188 27.819 16.7019 27.2767 17L26.7776 17.1914L26.2785 17.3867C25.789 17.6369 25.249 17.8205 24.6813 17.9297C24.1457 18.0338 23.5961 18.0876 23.0442 18.0898L22.9843 18.1016ZM9.44827 35.1563H19.0463V37.3164H9.44827V35.1563ZM9.44827 29.6875H23.0692V31.8477H9.44827V29.6875ZM9.44827 24.2188H38.5467V26.3789H9.44827V24.1953V24.2188ZM48 33.1445C48.0004 33.4496 47.8734 33.7465 47.6382 33.9898C47.403 34.2331 47.0726 34.4095 46.6973 34.4922L30.9103 47.4844C30.7443 47.6453 30.5345 47.7751 30.2961 47.8643C30.0577 47.9535 29.7969 47.9999 29.5327 48H3.20932C2.78768 48.0005 2.37006 47.9359 1.98039 47.8099C1.59072 47.6838 1.23667 47.4988 0.938525 47.2655C0.640382 47.0321 0.40401 46.755 0.24296 46.4501C0.0819094 46.1451 -0.000653377 45.8183 3.89362e-06 45.4883V2.51172C-0.000653377 2.18173 0.0819094 1.85489 0.24296 1.54992C0.40401 1.24495 0.640382 0.967858 0.938525 0.734521C1.23667 0.501184 1.59072 0.316192 1.98039 0.190149C2.37006 0.0641051 2.78768 -0.000511354 3.20932 3.04728e-06H44.7907C45.6414 0.00103615 46.457 0.265995 47.0586 0.736809C47.6601 1.20762 47.9987 1.84589 48 2.51172V33.1445ZM44.4213 31.4648V2.80469H3.58366V45.207H27.7309V32.875C27.7309 32.501 27.9207 32.1423 28.2586 31.8779C28.5965 31.6134 29.0548 31.4648 29.5327 31.4648H44.4213Z" fill="black"/>
</svg>
