<svg width="47" height="48" viewBox="0 0 47 48" fill="none" xmlns="http://www.w3.org/2000/svg">
<path fill-rule="evenodd" clip-rule="evenodd" d="M14.9035 27.5764C14.9036 27.734 14.8651 27.8901 14.7901 28.0357C14.7152 28.1813 14.6053 28.3137 14.4668 28.4252C14.3282 28.5367 14.1637 28.6252 13.9826 28.6856C13.8015 28.7459 13.6074 28.7771 13.4114 28.7771C13.0154 28.7773 12.6356 28.651 12.3555 28.426C12.0754 28.2011 11.9179 27.8959 11.9177 27.5776C11.9175 27.2592 12.0746 26.9539 12.3544 26.7287C12.6343 26.5035 13.0139 26.3769 13.4099 26.3768C13.8058 26.3766 14.1856 26.5029 14.4657 26.7279C14.7458 26.9528 14.9033 27.258 14.9035 27.5764ZM22.3679 28.7717C22.368 28.9294 22.3295 29.0854 22.2546 29.2311C22.1796 29.3767 22.0697 29.5091 21.9312 29.6206C21.7926 29.7321 21.6281 29.8206 21.447 29.8809C21.2659 29.9413 21.0718 29.9725 20.8758 29.9725C20.4798 29.9727 20.1 29.8464 19.8199 29.6214C19.5398 29.3965 19.3823 29.0913 19.3821 28.7729C19.3819 28.4546 19.539 28.1493 19.8189 27.9241C20.0987 27.6989 20.4783 27.5723 20.8743 27.5722C21.2702 27.572 21.65 27.6983 21.9301 27.9233C22.2102 28.1482 22.3677 28.4534 22.3679 28.7717ZM16.4038 34.7763C16.5999 34.7761 16.794 34.7449 16.975 34.6845C17.1561 34.624 17.3205 34.5355 17.459 34.4239C17.5975 34.3124 17.7073 34.18 17.7822 34.0343C17.857 33.8886 17.8954 33.7325 17.8952 33.5749C17.895 33.4173 17.8562 33.2613 17.781 33.1157C17.7058 32.9701 17.5957 32.8379 17.4569 32.7266C17.3182 32.6153 17.1535 32.527 16.9723 32.4668C16.7911 32.4066 16.5969 32.3758 16.4009 32.3759C16.0049 32.3762 15.6254 32.503 15.3457 32.7283C15.066 32.9536 14.9091 33.259 14.9095 33.5773C14.9099 33.8956 15.0675 34.2008 15.3478 34.4256C15.628 34.6505 16.0079 34.7766 16.4038 34.7763ZM25.3582 32.3699C25.3584 32.5275 25.3199 32.6836 25.2451 32.8293C25.1703 32.975 25.0605 33.1074 24.922 33.2189C24.7835 33.3305 24.619 33.419 24.438 33.4795C24.2569 33.5399 24.0628 33.5711 23.8668 33.5713C23.6707 33.5715 23.4766 33.5406 23.2954 33.4804C23.1142 33.4202 22.9495 33.332 22.8107 33.2206C22.6719 33.1093 22.5618 32.9771 22.4866 32.8315C22.4114 32.686 22.3726 32.5299 22.3724 32.3723C22.372 32.054 22.5289 31.7486 22.8086 31.5233C23.0883 31.298 23.4679 31.1712 23.8638 31.1709C24.2597 31.1706 24.6396 31.2967 24.9199 31.5216C25.2001 31.7465 25.3578 32.0516 25.3582 32.3699ZM26.857 38.3709C27.0531 38.3707 27.2472 38.3395 27.4282 38.279C27.6093 38.2186 27.7737 38.13 27.9122 38.0185C28.0507 37.9069 28.1605 37.7745 28.2353 37.6288C28.3102 37.4832 28.3486 37.3271 28.3484 37.1695C28.3482 37.0119 28.3094 36.8558 28.2342 36.7103C28.159 36.5647 28.0489 36.4325 27.9101 36.3212C27.7713 36.2098 27.6067 36.1215 27.4255 36.0614C27.2443 36.0012 27.0501 35.9703 26.854 35.9705C26.4581 35.9708 26.0785 36.0975 25.7988 36.3229C25.5192 36.5482 25.3623 36.8536 25.3626 37.1719C25.363 37.4902 25.5207 37.7953 25.801 38.0202C26.0812 38.245 26.4611 38.3712 26.857 38.3709ZM31.3297 32.3663C31.3298 32.5239 31.2913 32.68 31.2164 32.8256C31.1414 32.9713 31.0315 33.1036 30.893 33.2151C30.7544 33.3267 30.5899 33.4151 30.4088 33.4755C30.2277 33.5359 30.0336 33.567 29.8376 33.5671C29.6415 33.5672 29.4474 33.5362 29.2662 33.476C29.085 33.4157 28.9204 33.3274 28.7817 33.216C28.643 33.1046 28.533 32.9723 28.4579 32.8268C28.3827 32.6812 28.344 32.5251 28.3439 32.3675C28.3437 32.0492 28.5008 31.7439 28.7807 31.5187C29.0605 31.2935 29.4401 31.1669 29.8361 31.1667C30.232 31.1666 30.6118 31.2929 30.8919 31.5178C31.172 31.7428 31.3295 32.048 31.3297 32.3663ZM19.3941 39.5746C19.5901 39.5745 19.7842 39.5433 19.9653 39.4828C20.1463 39.4224 20.3108 39.3338 20.4493 39.2223C20.5878 39.1107 20.6976 38.9783 20.7724 38.8326C20.8473 38.687 20.8857 38.5309 20.8855 38.3733C20.8853 38.2156 20.8465 38.0596 20.7713 37.9141C20.6961 37.7685 20.5859 37.6363 20.4472 37.5249C20.3084 37.4136 20.1437 37.3253 19.9625 37.2652C19.7813 37.205 19.5872 37.1741 19.3911 37.1743C18.9952 37.1746 18.6156 37.3013 18.3359 37.5266C18.0562 37.7519 17.8993 38.0573 17.8997 38.3757C17.9001 38.694 18.0578 38.9991 18.338 39.224C18.6183 39.4488 18.9982 39.575 19.3941 39.5746ZM13.4196 37.1791C13.4197 37.3367 13.3811 37.4928 13.3062 37.6384C13.2313 37.784 13.1214 37.9164 12.9828 38.0279C12.8443 38.1394 12.6798 38.2279 12.4987 38.2883C12.3176 38.3487 12.1235 38.3798 11.9274 38.3799C11.7314 38.3799 11.5372 38.349 11.3561 38.2887C11.1749 38.2285 11.0103 38.1401 10.8716 38.0288C10.7329 37.9174 10.6228 37.7851 10.5477 37.6395C10.4726 37.4939 10.4339 37.3379 10.4338 37.1803C10.4336 37.0227 10.472 36.8666 10.5469 36.7209C10.6217 36.5752 10.7315 36.4428 10.87 36.3313C11.0085 36.2197 11.1729 36.1312 11.354 36.0707C11.535 36.0102 11.7291 35.979 11.9252 35.9789C12.1212 35.9787 12.3154 36.0096 12.4966 36.0698C12.6778 36.1299 12.8425 36.2182 12.9813 36.3296C13.12 36.4409 13.2301 36.5731 13.3054 36.7187C13.3806 36.8642 13.4194 37.0215 13.4196 37.1791ZM8.93792 33.5797C9.33386 33.5794 9.71342 33.4526 9.99311 33.2273C10.2728 33.002 10.4297 32.6966 10.4293 32.3783C10.4289 32.06 10.2713 31.7549 9.991 31.53C9.71075 31.3051 9.33087 31.179 8.93494 31.1793C8.539 31.1796 8.15943 31.3064 7.87974 31.5317C7.60005 31.757 7.44315 32.0624 7.44354 32.3807C7.44394 32.699 7.6016 33.0042 7.88185 33.229C8.1621 33.4539 8.54198 33.58 8.93792 33.5797Z" fill="black"/>
<path fill-rule="evenodd" clip-rule="evenodd" d="M20.154 2.39283C20.7479 2.39283 21.3174 2.58251 21.7374 2.92013C22.1574 3.25774 22.3933 3.71565 22.3933 4.19312V22.796H25.3791V7.79368C25.3791 7.31622 25.615 6.85831 26.0349 6.52069C26.4549 6.18307 27.0245 5.9934 27.6184 5.9934C28.2123 5.9934 28.7819 6.18307 29.2018 6.52069C29.6218 6.85831 29.8577 7.31622 29.8577 7.79368V26.4998C29.8577 28.785 33.4556 29.7763 35.2007 27.9725L39.9571 23.0553C40.3118 22.6873 40.8283 22.4425 41.4006 22.3711C41.9728 22.2997 42.5573 22.4071 43.0341 22.6712C43.5109 22.9354 43.8439 23.3363 43.9646 23.7916C44.0853 24.2469 43.9847 24.7221 43.6833 25.1196L32.9286 39.3586C31.4894 41.2644 29.4636 42.8399 27.0466 43.933C24.6296 45.0262 21.903 45.6002 19.1298 45.5996C10.2143 45.5996 2.98577 39.7883 2.98577 32.6208V14.9948C2.98577 14.5173 3.2217 14.0594 3.64165 13.7218C4.06161 13.3842 4.63119 13.1945 5.2251 13.1945C5.81901 13.1945 6.38859 13.3842 6.80854 13.7218C7.2285 14.0594 7.46443 14.5173 7.46443 14.9948V25.338H10.4502V7.79368C10.4502 7.31622 10.6861 6.85831 11.1061 6.52069C11.526 6.18307 12.0956 5.9934 12.6895 5.9934C13.2834 5.9934 13.853 6.18307 14.273 6.52069C14.6929 6.85831 14.9289 7.31622 14.9289 7.79368V22.796H17.9146V4.19312C17.9146 3.71565 18.1506 3.25774 18.5705 2.92013C18.9905 2.58251 19.56 2.39283 20.154 2.39283ZM14.9348 3.99989C14.999 2.9218 15.5769 1.90493 16.5486 1.16019C17.5204 0.415453 18.8114 0 20.154 0C21.4965 0 22.7875 0.415453 23.7593 1.16019C24.731 1.90493 25.3089 2.9218 25.3731 3.99989C26.1696 3.69515 27.0491 3.55749 27.9297 3.59974C28.8102 3.64199 29.6631 3.86277 30.4089 4.24151C31.1547 4.62025 31.7691 5.14462 32.1948 5.76574C32.6205 6.38686 32.8436 7.08452 32.8435 7.79368V26.4998L37.6013 21.5826C38.4241 20.7316 39.6207 20.1657 40.9458 20.0011C42.2709 19.8364 43.6242 20.0854 44.7282 20.6971C45.8323 21.3088 46.6035 22.2368 46.8839 23.2909C47.1643 24.345 46.9325 25.4454 46.2362 26.3666L35.4814 40.6032C33.7761 42.8618 31.3756 44.7289 28.5115 46.0245C25.6474 47.3201 22.4162 48.0005 19.1298 48C8.56468 48 1.11317e-07 41.1145 1.11317e-07 32.6208V14.9948C-0.000181838 14.2861 0.222688 13.5888 0.647864 12.968C1.07304 12.3471 1.6867 11.8229 2.43171 11.444C3.17672 11.0651 4.02887 10.8439 4.90882 10.801C5.78877 10.7581 6.66792 10.8949 7.46443 11.1986V7.79368C7.46427 7.08452 7.68744 6.38686 8.11314 5.76574C8.53884 5.14462 9.15321 4.62025 9.89899 4.24151C10.6448 3.86277 11.4977 3.64199 12.3782 3.59974C13.2588 3.55749 14.1383 3.69515 14.9348 3.99989Z" fill="black"/>
</svg>
