<svg width="50" height="50" viewBox="0 0 50 50" fill="none" xmlns="http://www.w3.org/2000/svg">
<path d="M25 1C11.8311 1 1 10.6966 1 22.8119C1 29.8418 4.72752 36.0426 10.3515 40.0084C10.3433 40.2435 10.3515 40.6067 10.0572 41.752C9.69346 43.1665 8.97411 45.1708 7.47411 47.393L6.3951 48.9657L8.25886 48.9999C14.7207 49.0298 18.4646 44.5896 19.049 43.8717C20.9578 44.3161 22.9441 44.6238 25 44.6238C38.1648 44.6238 49 34.9272 49 22.8119C49 10.6966 38.1648 1 25 1ZM25 3.05128C37.2575 3.05128 47.0381 11.9701 47.0381 22.8119C47.0381 33.6537 37.2575 42.5725 25 42.5725C22.9033 42.5725 20.8678 42.3076 18.951 41.8204L18.3624 41.6836L17.97 42.1965C17.97 42.1965 14.9455 45.7605 10.1226 46.6067C10.9932 44.9742 11.6553 43.4571 11.9537 42.299C12.3706 40.6794 12.3787 39.564 12.3787 39.564V39.017L11.921 38.7093C6.45232 35.0854 2.96185 29.3119 2.96185 22.8119C2.96185 11.9701 12.7384 3.05128 25 3.05128Z" fill="black" stroke="black"/>
</svg>
