<svg width="24" height="26" viewBox="0 0 24 26" fill="none" xmlns="http://www.w3.org/2000/svg">
<path d="M20.2871 18.0916C19.5163 15.0232 17.1554 12.6731 14.2725 12.1042C14.1172 12.0713 13.9661 12.1857 13.9377 12.3557C13.909 12.5254 14.0128 12.688 14.1695 12.7188C16.8353 13.2453 19.0184 15.4186 19.7312 18.2558C19.7661 18.3949 19.8823 18.4862 20.0089 18.4862C20.0342 18.4862 20.0595 18.4828 20.0849 18.4752C20.2385 18.4297 20.329 18.2579 20.2871 18.0916Z" fill="black" stroke="black" stroke-width="0.3"/>
<path d="M23.4247 21.8014H23.0739V21.1801C23.0739 15.0652 18.7664 10.0221 13.2703 9.43171C13.6776 9.08374 13.9405 8.54543 13.9405 7.94074C13.9405 6.89371 13.155 6.04169 12.1898 6.04169C11.2246 6.04169 10.4392 6.89371 10.4392 7.94074C10.4392 8.54871 10.7051 9.08946 11.1162 9.4372C9.57071 9.60275 8.07586 10.1219 6.73249 10.9682C6.599 10.7598 6.47206 10.5458 6.35888 10.3213L5.72619 9.0665C5.62547 8.8657 5.32165 8.8657 5.22093 9.0665L4.58824 10.321C3.98284 11.5213 3.07839 12.5024 1.97223 13.1585L0.815435 13.8451C0.723161 13.8997 0.665771 14.005 0.665771 14.1191C0.665771 14.2333 0.723161 14.3386 0.815716 14.3932L1.97251 15.0795C2.20256 15.216 2.42159 15.3697 2.63332 15.5334C1.76676 17.2569 1.30578 19.2041 1.30578 21.1801V21.8014H0.95497C0.795742 21.8014 0.666897 21.9412 0.666897 22.1139V24.8775C0.666897 25.0502 0.795742 25.19 0.95497 25.19H23.4247C23.5839 25.19 23.7128 25.0502 23.7128 24.8775V22.1139C23.7128 21.9412 23.5839 21.8014 23.4247 21.8014ZM12.1898 6.66667C12.8374 6.66667 13.3644 7.23825 13.3644 7.94074C13.3644 8.64323 12.8374 9.2145 12.1898 9.2145C11.5422 9.2145 11.0153 8.64323 11.0153 7.94074C11.0153 7.23825 11.5422 6.66667 12.1898 6.66667ZM1.55419 14.1191L2.24877 13.7066C3.45142 12.9934 4.4352 11.9265 5.09349 10.621L5.47356 9.86756L5.85362 10.621C6.51135 11.9262 7.49514 12.9931 8.69807 13.7066L9.39293 14.1191L8.69835 14.5314C7.49514 15.2449 6.51135 16.3118 5.85362 17.617L5.47356 18.3707L5.09349 17.6167C4.4352 16.3115 3.45142 15.2446 2.24877 14.5314L1.55419 14.1191ZM1.88193 21.1801C1.88193 19.3426 2.30384 17.5323 3.09592 15.9224C3.69715 16.4809 4.2035 17.1541 4.58824 17.9166L5.22093 19.1718C5.27129 19.2722 5.36835 19.3344 5.47356 19.3344C5.57877 19.3344 5.67583 19.2722 5.72619 19.1718L6.35888 17.9166C6.964 16.7167 7.86845 15.7356 8.97461 15.0795L10.1314 14.3932C10.224 14.3386 10.2813 14.2333 10.2813 14.1191C10.2813 14.005 10.224 13.8997 10.1317 13.8451L8.97461 13.1585C8.24722 12.727 7.60946 12.1528 7.08428 11.4704C8.63447 10.51 10.3928 9.99817 12.1898 9.99817C17.8737 9.99817 22.4977 15.0145 22.4977 21.1801V21.8014H1.88193V21.1801ZM23.1366 24.565H1.24304V22.4264H23.1366V24.565Z" fill="black" stroke="black" stroke-width="0.3"/>
<path d="M23.5687 4.27151L22.6148 3.70543C21.7109 3.16925 20.9721 2.36758 20.4778 1.38769L19.956 0.352565C19.8553 0.151765 19.5514 0.151765 19.4507 0.352565L18.9289 1.38769C18.4346 2.36789 17.6958 3.16925 16.7922 3.70543L15.838 4.27151C15.7454 4.32614 15.688 4.43142 15.688 4.54555C15.688 4.65969 15.7454 4.76497 15.838 4.81959L16.7922 5.38568C17.6956 5.92186 18.4346 6.72322 18.9289 7.70372L19.4507 8.73854C19.5011 8.83894 19.5981 8.9012 19.7034 8.9012C19.8086 8.9012 19.9056 8.83894 19.956 8.73854L20.4778 7.70372C20.9721 6.72353 21.7111 5.92186 22.6148 5.38568L23.5687 4.81959C23.6613 4.76497 23.7187 4.65969 23.7187 4.54555C23.7187 4.43142 23.6613 4.32614 23.5687 4.27151ZM22.3385 4.8376C21.3378 5.43084 20.5195 6.31857 19.9726 7.40405L19.7034 7.93748L19.4341 7.40405C18.887 6.31827 18.0689 5.43084 17.0685 4.8376L16.5765 4.54555L17.0685 4.25351C18.0692 3.66027 18.8872 2.77284 19.4341 1.68736L19.7034 1.15363L19.9726 1.68736C20.5195 2.77254 21.3376 3.65996 22.3385 4.25351L22.8302 4.54555L22.3385 4.8376Z" fill="black" stroke="black" stroke-width="0.3"/>
<path d="M9.00906 4.05367C8.39521 3.6893 7.89334 3.14488 7.55744 2.47901L7.19425 1.75882C7.09326 1.55771 6.78971 1.55832 6.68872 1.75882L6.32609 2.47901C5.99019 3.14488 5.48832 3.6893 4.87447 4.05336L4.21055 4.44703C4.118 4.50196 4.06061 4.60724 4.06061 4.72137C4.06061 4.8355 4.118 4.94079 4.21055 4.99572L4.87419 5.38908C5.48832 5.75375 5.99019 6.29817 6.32609 6.96404L6.689 7.68393C6.73935 7.78433 6.83641 7.84658 6.94162 7.84658C7.04684 7.84658 7.14389 7.78433 7.19425 7.68423L7.55744 6.96404C7.89334 6.29817 8.39521 5.75375 9.00906 5.38908L9.6727 4.99541C9.76525 4.94079 9.82264 4.8355 9.82264 4.72137C9.82264 4.60724 9.76525 4.50196 9.6727 4.44733L9.00906 4.05367ZM8.73252 4.841C8.0219 5.26274 7.44069 5.89352 7.05218 6.66406L6.94162 6.88287L6.83135 6.66437C6.44284 5.89352 5.86163 5.26274 5.15073 4.84069L4.9493 4.72137L5.15073 4.60175C5.86163 4.18031 6.44284 3.54984 6.83163 2.77868L6.94162 2.55988L7.05218 2.77868C7.44069 3.54984 8.0219 4.18031 8.7328 4.60175L8.93423 4.72137L8.73252 4.841Z" fill="black" stroke="black" stroke-width="0.3"/>
<path d="M2.04622 3.18521C2.20545 3.18521 2.33429 3.04545 2.33429 2.87272V2.00025H3.13887C3.2981 2.00025 3.42694 1.86048 3.42694 1.68776C3.42694 1.51504 3.2981 1.37527 3.13887 1.37527H2.33429V0.502493C2.33429 0.329769 2.20545 0.190002 2.04622 0.190002C1.88699 0.190002 1.75814 0.329769 1.75814 0.502493V1.37527H0.953845C0.794617 1.37527 0.665771 1.51504 0.665771 1.68776C0.665771 1.86048 0.794617 2.00025 0.953845 2.00025H1.75814V2.87272C1.75814 3.04545 1.88699 3.18521 2.04622 3.18521Z" fill="black" stroke="black" stroke-width="0.3"/>
<path d="M12.7554 4.37357C12.9146 4.37357 13.0434 4.2338 13.0434 4.06108V3.1883H13.8477C14.007 3.1883 14.1358 3.04853 14.1358 2.87581C14.1358 2.70308 14.007 2.56332 13.8477 2.56332H13.0434V1.69085C13.0434 1.51812 12.9146 1.37836 12.7554 1.37836C12.5961 1.37836 12.4673 1.51812 12.4673 1.69085V2.56332H11.6627C11.5035 2.56332 11.3746 2.70308 11.3746 2.87581C11.3746 3.04853 11.5035 3.1883 11.6627 3.1883H12.4673V4.06108C12.4673 4.2338 12.5961 4.37357 12.7554 4.37357Z" fill="black" stroke="black" stroke-width="0.3"/>
</svg>
