<svg width="48" height="48" viewBox="0 0 48 48" fill="none" xmlns="http://www.w3.org/2000/svg">
<path d="M26.6923 0.231717C27.0667 -0.0964152 27.6512 -0.0729772 27.9968 0.282501C28.3424 0.637977 28.3178 1.19268 27.9432 1.52081C26.3014 2.96225 25.0833 4.70448 24.3632 6.79437C23.6966 8.71629 23.4414 10.9429 23.6472 13.5055C23.9886 13.4781 24.3302 13.439 24.6718 13.3844C25.2891 13.2828 25.9104 13.1344 26.536 12.9312C26.5688 12.9195 26.6019 12.9117 26.6347 12.9039C28.7045 12.4625 30.5645 12.3414 32.2434 12.4976C33.9512 12.6539 35.4698 13.0992 36.8194 13.7867C41.1897 16.0172 43.3089 19.2985 43.9262 22.9627C43.9961 23.369 44.0454 23.783 44.0742 24.1971H45.1606C45.5227 24.1971 45.819 24.4784 45.819 24.8221C45.819 24.8806 45.8107 24.9354 45.7944 24.9901L43.5763 33.8574C43.5064 34.1466 43.2347 34.338 42.9385 34.338H41.9633C41.6217 35.0997 41.243 35.8458 40.8439 36.5762C40.6999 36.8341 40.5476 37.1036 40.383 37.3811H47.3416C47.7037 37.3811 48 37.6622 48 38.0061C48 38.2209 47.8848 38.4123 47.7078 38.5256L42.4241 42.307L47.7573 46.4164C48.0371 46.6351 48.0824 47.0259 47.8518 47.2914C47.7243 47.4437 47.535 47.5218 47.3416 47.5218V47.5258H29.8197C28.6264 47.8461 27.4659 47.9281 26.3342 47.8188C25.1286 47.7056 23.9641 47.3774 22.8406 46.9085C21.3633 47.6117 19.8201 48.0297 18.1865 47.9984C16.3882 47.9632 14.5159 47.3851 12.553 46.0491V46.0453C12.5283 46.0297 12.5036 46.0102 12.4831 45.9906C10.5284 44.3695 8.92765 42.6702 7.55734 40.9476C6.19526 39.2364 5.0554 37.4944 4.02664 35.7756C3.7427 35.299 3.47934 34.8184 3.24066 34.334H1.4465C1.09261 34.334 0.804558 34.0684 0.788097 33.7403L0.00212416 24.8768C-0.0266812 24.5331 0.240796 24.2322 0.602921 24.205L0.656417 24.2009H1.45474C1.77571 21.6112 2.69749 19.2165 4.12539 17.2595C5.73438 15.0524 7.9812 13.4078 10.73 12.6695C13.0345 12.0484 15.6763 12.0679 18.5733 12.9312V12.9351C19.2812 13.1383 19.9929 13.2984 20.6967 13.4C21.063 13.4547 21.4251 13.4937 21.7913 13.5172C21.6719 11.896 21.7214 10.396 21.9313 9.00535C19.5569 10.2827 17.3594 10.7593 15.3265 10.5249C10.3474 9.94287 7.94005 6.0131 5.98539 2.16145L8.65194 1.89972C15.6475 0.884075 19.8244 3.16539 22.2316 7.50924C22.3385 7.08343 22.462 6.66545 22.602 6.26311C23.4291 3.86461 24.82 1.87629 26.6923 0.231717ZM39.9385 33.0919V31.2051C39.9385 30.8574 40.235 30.5801 40.5971 30.5801C40.9633 30.5801 41.2555 30.8614 41.2555 31.2051V33.0919H42.4118L44.3254 25.4471H1.37243L2.05142 33.0919H3.6851V30.0644C3.6851 29.7207 3.98137 29.4394 4.34349 29.4394C4.70562 29.4394 5.00191 29.7207 5.00191 30.0644V33.0919H7.74252V31.2051C7.74252 30.8574 8.0388 30.5801 8.40093 30.5801C8.76717 30.5801 9.05934 30.8614 9.05934 31.2051V33.0919H11.6065V30.0644C11.6065 29.7207 11.9028 29.4394 12.265 29.4394C12.6271 29.4394 12.9234 29.7207 12.9234 30.0644V33.0919H15.664V31.2051C15.664 30.8574 15.9603 30.5801 16.3224 30.5801C16.6845 30.5801 16.9808 30.8614 16.9808 31.2051V33.0919H20.0012V30.0644C20.0012 29.7207 20.2975 29.4394 20.6596 29.4394C21.0217 29.4394 21.318 29.7207 21.318 30.0644V33.0919H24.0587V31.2051C24.0587 30.8574 24.355 30.5801 24.7171 30.5801C25.0792 30.5801 25.3755 30.8614 25.3755 31.2051V33.0919H27.9227V30.0644C27.9227 29.7207 28.219 29.4394 28.5811 29.4394C28.9432 29.4394 29.2395 29.7207 29.2395 30.0644V33.0919H31.9802V31.2051C31.9802 30.8574 32.2765 30.5801 32.6386 30.5801C33.0007 30.5801 33.297 30.8614 33.297 31.2051V33.0919H35.877V30.0644C35.877 29.7207 36.1733 29.4394 36.5354 29.4394C36.8975 29.4394 37.194 29.7207 37.194 30.0644V33.0919H39.9385ZM36.5602 34.3419H36.5396H36.5191H32.7002C32.6797 34.3419 32.6591 34.3457 32.6386 34.3457C32.618 34.3457 32.5973 34.3457 32.5768 34.3419H28.5934H28.5771H28.5605H24.7705C24.7499 34.3419 24.7336 34.3457 24.7129 34.3457C24.6923 34.3457 24.676 34.3457 24.6553 34.3419H20.6596H20.6556H16.3841C16.3635 34.3419 16.3471 34.3457 16.3265 34.3457C16.3059 34.3457 16.2895 34.3457 16.2689 34.3419H12.2691H12.265H11.3802C11.6354 34.7285 11.9111 35.1035 12.2074 35.4708C13.195 36.6974 14.3842 37.8068 15.7093 38.8342C16.1043 39.1389 16.166 39.6896 15.845 40.0686C15.5241 40.4436 14.9439 40.5021 14.5447 40.1936C13.1085 39.0803 11.8164 37.877 10.7383 36.5334C10.1827 35.842 9.6807 35.1114 9.24452 34.3419H8.45853C8.43797 34.3419 8.42151 34.3457 8.40093 34.3457C8.38035 34.3457 8.36389 34.3457 8.34333 34.3419H5.3023C5.40929 34.5333 5.51628 34.7247 5.6315 34.9161C6.62322 36.5685 7.71782 38.2443 9.03052 39.8967C10.3227 41.5217 11.8246 43.1193 13.6435 44.635C15.2813 45.7444 16.7956 46.225 18.2194 46.2523C19.6556 46.2797 21.0342 45.8577 22.3715 45.1703C22.639 45.0296 22.9476 45.0336 23.2068 45.1469C24.2851 45.6311 25.3878 45.971 26.5153 46.0804C27.6224 46.1858 28.7621 46.0687 29.9472 45.6469C31.4576 45.1077 33.017 43.8538 34.4533 42.3381C35.7578 40.9631 36.9471 39.385 37.9017 37.9318L37.9799 37.7638C38.021 37.6739 38.0828 37.5998 38.1527 37.5412C38.5519 36.9162 38.9057 36.3185 39.2062 35.7756C39.4654 35.3067 39.7124 34.8301 39.9428 34.3497H36.5602V34.3419ZM42.2265 24.2009C42.1977 23.8768 42.1566 23.5564 42.1031 23.24C41.5723 20.0915 39.7369 17.2673 35.9471 15.3414C34.8071 14.7594 33.5191 14.3844 32.0624 14.2516C30.5893 14.1148 28.9432 14.2242 27.0955 14.611C26.3918 14.8375 25.6841 15.0055 24.9723 15.1227C24.2851 15.2321 23.5896 15.2907 22.89 15.3024C22.8366 15.3063 22.783 15.3063 22.7337 15.3024C21.9601 15.3063 21.1863 15.2477 20.4169 15.1305C19.6185 15.0133 18.8243 14.8375 18.0301 14.607L18.0219 14.6031V14.607C15.4829 13.8492 13.1991 13.8258 11.228 14.357C8.91119 14.982 7.01415 16.3766 5.64385 18.2556C4.42579 19.9237 3.62337 21.9704 3.31884 24.2009H42.2265ZM45.3747 38.6349H39.6094C38.5766 40.2325 37.2679 41.9865 35.8277 43.5062C34.8071 44.5805 33.7125 45.5492 32.585 46.2757H45.4857L40.9715 42.7952C40.918 42.7601 40.8686 42.7171 40.8275 42.6624C40.6094 42.3889 40.667 41.9982 40.955 41.7874L45.3747 38.6349Z" fill="black"/>
</svg>
