<svg width="180" height="113" viewBox="0 0 180 113" fill="none" xmlns="http://www.w3.org/2000/svg">
<path d="M51.4296 24.8474C49.7664 24.1346 48.2616 23.204 46.737 22.214V41.2814C43.1334 38.3114 38.322 37.2224 33.7878 38.351C29.2734 39.4796 25.3728 42.8654 23.5908 47.1818C22.482 49.8746 22.1849 52.607 21.9077 55.9334C21.7889 57.2996 21.6305 59.3984 21.8483 61.8932C22.0661 64.388 22.8185 68.6054 25.6301 73.4762C26.2637 72.8228 27.63 71.615 29.7288 71.021C30.2238 70.8824 33.3521 70.0508 36.5201 71.7734C38.2031 72.6842 39.2328 73.9514 39.807 74.8424C40.8366 76.4462 41.1138 77.9708 41.2128 78.7826C45.1926 78.9608 49.1922 77.3174 52.083 74.5652C54.9738 71.813 56.6964 67.8926 56.736 63.893V25.679C54.9342 25.8968 53.0928 25.5602 51.4296 24.8474ZM46.7568 65.7938C46.3806 66.665 45.2916 68.843 42.9552 69.8528C41.9652 70.2884 41.0741 70.3676 40.4603 70.427C39.7475 70.4864 37.6488 70.6646 35.7084 69.6548C32.6196 68.0114 32.0058 64.3088 31.9266 63.8138V52.7258C31.9464 52.013 32.1246 50.231 33.4512 48.647C34.2234 47.7362 35.0351 47.2808 35.4707 47.0432C37.2131 46.1126 40.0248 45.479 42.777 46.7462C45.4302 47.9738 46.5191 50.2904 46.7963 50.9042C46.7765 55.874 46.7568 60.8438 46.7568 65.7938Z" fill="#011838"/>
<path d="M74.4173 78.3272H64.5569L64.5767 44.3504C67.8239 43.6376 71.0513 42.9446 74.2985 42.2318L74.4173 78.3272Z" fill="#011838"/>
<path d="M108.057 70.3083C106.869 73.7931 104.355 75.6147 103.305 76.3473C98.5337 79.6935 93.0093 78.8421 90.6538 78.4857C89.9403 78.3867 87.8613 78.0105 85.3274 76.9611C83.6248 76.2483 82.0007 75.3573 80.5356 74.2287C81.6048 71.8923 82.7534 69.5559 83.8424 67.2195C86.733 69.7539 90.5147 71.2587 94.356 71.3973C95.742 71.4567 97.6623 71.2983 98.6924 69.9123C99.5433 68.7639 99.5237 67.1205 98.9894 65.9325C98.3954 64.5861 97.2467 64.0713 93.663 62.4081C90.0794 60.7449 88.2974 59.9133 88.119 59.8143C87.2673 59.2599 83.6043 56.8443 82.5947 52.2309C81.486 47.2215 84.2973 43.2813 84.6344 42.8259C88.1583 38.0739 94.0983 37.9155 96.1184 37.8759C101.841 37.7373 105.959 40.5093 107.404 41.6181C106.374 43.8159 105.365 46.0137 104.335 48.1917C101.979 46.8057 99.306 45.8751 96.6134 45.5385C95.742 45.4197 94.851 45.3801 93.9797 45.5781C93.5444 45.6771 92.4947 46.0137 91.8418 47.0037C91.1283 48.0927 91.2478 49.4787 91.6634 50.4291C92.2967 51.8547 93.663 52.2507 96.1577 53.3001C98.91 54.4683 101.148 55.4385 103.088 56.8443C104.434 57.8145 106.791 59.5371 107.998 62.7447C109.305 66.3285 108.295 69.5757 108.057 70.3083Z" fill="#011838"/>
<path d="M154.924 78.2082C153.776 78.3864 152.152 78.5448 150.172 78.4656C147.539 78.3666 145.875 78.2874 144.272 77.2578C142.054 75.8124 141.282 73.3176 141.024 72.1296C140.985 65.8134 140.925 59.517 140.886 53.2008C140.688 51.894 140.272 50.6268 139.56 49.518C138.846 48.4092 137.817 47.4786 136.59 47.043C135.52 46.647 134.629 46.647 133.56 46.6866C132.471 46.7064 130.986 46.746 129.363 47.6172C127.659 48.528 126.768 49.815 126.57 50.1318C125.304 52.0524 125.304 54.0126 125.343 54.7452V78.3072H116.196H115.146V19.4022C115.819 19.422 120.611 19.719 123.363 23.6592C124.611 25.4412 124.947 27.2628 125.046 28.3122V42.9444C128.154 39.8952 132.392 37.8954 136.748 37.8756C141.104 37.8558 145.519 39.9744 147.895 43.6176C149.559 46.152 150.212 49.2012 150.509 52.2108V71.7336C150.608 72.486 150.846 73.7136 151.598 75.0006C152.687 76.8618 154.191 77.8122 154.924 78.2082Z" fill="#011838"/>
<path d="M51.8652 15.1455C54.063 17.3631 56.1025 17.9571 57.1518 18.1749C58.0627 18.3531 59.0526 18.3927 59.805 18.4125C61.4484 18.4719 62.8146 18.3729 63.7849 18.2541C62.9928 18.6897 61.5475 19.3431 59.6467 19.4817C58.7359 19.5411 57.2508 19.6401 55.6272 18.9075C53.3106 17.8977 52.2216 15.8781 51.8652 15.1455Z" fill="#011838"/>
<path d="M87.4654 16.5711C85.8225 18.6303 83.3671 18.8481 83.0104 18.8679C81.1098 19.0065 79.704 18.2343 79.1892 17.9175C80.1396 17.9373 81.8028 17.8581 83.6445 17.0067C84.2581 16.7295 85.3078 16.2147 86.2577 15.2049C88.0798 13.2447 88.2181 10.7301 88.2181 9.85889C89.2081 12.1557 88.9307 14.7495 87.4654 16.5711Z" fill="#011838"/>
<path d="M91.9202 7.56191C89.8019 3.32471 85.4263 2.1565 84.4167 1.8793C82.7729 1.4437 81.3275 1.4437 80.0801 1.4437C77.8427 1.4437 76.0013 1.7803 74.7143 2.1169C73.8233 1.4833 72.0809 0.414103 69.6455 0.136903C68.5961 0.0181023 66.6161 -0.179897 64.4381 0.8497C62.1611 1.9387 61.0127 3.7603 60.5969 4.5127C59.5475 4.3345 55.5479 3.7603 51.7661 6.2353C50.7365 6.9085 47.8655 8.78951 47.0933 12.5119C46.5191 15.3037 47.2121 18.8083 49.4099 20.6299C50.3801 21.4417 53.0927 23.0653 55.8647 23.2831C56.2805 23.3227 57.1715 23.3425 57.8249 23.9761C58.6367 24.7483 58.6169 25.9759 58.6169 26.4313C58.6367 28.1539 58.9931 30.8863 60.0425 35.4601C60.8543 35.2027 61.6661 34.9651 62.4977 34.7473C67.1507 33.4999 71.9819 32.8861 76.8131 32.9059C79.6841 32.9257 82.5357 33.1633 85.3666 33.6385C85.2087 32.9257 85.1293 32.1733 84.9706 31.4803C84.5353 29.4211 84.0796 27.3817 83.6443 25.3225C83.5846 25.0453 83.4062 24.3325 83.5257 23.4019C83.5649 23.1445 83.5846 23.0059 83.6443 22.8673C84.0403 21.8773 85.6636 21.8179 87.0496 21.3427C88.5943 20.8081 89.5647 19.8181 90.2773 19.0657C92.2377 17.0461 92.7523 14.5315 92.8906 13.4029C93.0092 12.5317 93.1876 10.1161 91.9202 7.56191ZM88.9903 16.3333C87.7033 18.3925 85.6439 19.4419 83.9413 19.7587C83.9413 19.7587 81.7829 20.0755 79.3871 19.3231C78.8723 19.1647 78.3773 18.9667 77.8823 18.7687C77.4863 18.6103 77.0903 18.4519 76.6943 18.3133C76.7537 18.4519 76.8527 18.6301 77.0111 18.8281C77.2091 19.0657 77.4071 19.2241 77.6447 19.3825C78.1793 19.7389 78.4169 19.7785 78.8327 20.0161C79.1495 20.1943 79.6247 20.4715 79.9415 20.9071C80.0801 21.1051 80.4563 21.6793 80.3573 22.7089C80.1197 22.4911 79.7039 22.1545 79.0901 21.9367C78.6149 21.7783 78.1793 21.7387 77.9021 21.7585C78.3377 22.0753 78.9119 22.5505 79.4465 23.2435C79.8821 23.7979 80.1791 24.3325 80.3771 24.7681C80.0999 24.7087 79.7633 24.6493 79.3871 24.5701C79.2089 24.5305 78.8525 24.4711 78.4169 24.5107C78.1199 24.5305 78.0605 24.5899 78.0407 24.6295C78.0209 24.7285 78.2783 24.8869 78.3377 24.9265C79.0703 25.3423 80.6543 27.0451 81.3275 28.1737C81.6641 28.7479 82.0996 29.6785 82.1593 31.1041C82.0996 31.1239 82.1397 31.1239 82.0799 31.1239C82.0202 31.1239 73.9421 31.1635 73.5065 31.1635C71.7245 31.1833 70.5761 31.2625 69.9821 31.3021C68.4971 31.4209 67.7645 31.4803 67.1507 31.6387C65.2895 32.1337 63.8441 32.4901 62.8739 33.0445C62.7353 33.1237 62.3591 33.3415 62.0621 33.1831C61.8245 33.0643 61.7651 32.7079 61.7453 32.5693C61.2701 29.4805 60.8345 27.8965 61.3889 25.7383C61.4879 25.3423 61.6463 24.8671 62.0423 24.4117C62.4977 23.8969 63.0323 23.6791 63.2699 23.5801C64.0817 23.2633 65.0717 23.2039 65.8637 23.5603C65.7053 22.9861 65.1707 22.5505 64.5965 22.3921C64.0223 22.2337 63.3887 22.2733 62.8145 22.4119C62.0027 22.5901 61.2305 22.8475 60.4583 23.1445C60.6365 22.8673 60.9137 22.4713 61.3691 22.0753C61.9433 21.5605 62.4383 21.3427 64.7747 20.4517C65.5271 20.1547 66.2795 19.8379 67.0319 19.5805C68.0021 19.2241 68.6555 19.0261 68.6159 18.9073C68.5961 18.7885 68.0021 18.8281 67.8041 18.8281C65.6459 18.9271 63.6857 19.7785 63.6857 19.7785C61.3889 20.7685 59.1515 20.7487 57.8051 20.7289C56.1023 20.7091 53.9045 20.5903 51.7859 19.1251C50.0435 17.9173 48.8159 15.8779 48.9545 13.7791C49.0535 12.3337 49.7465 10.9873 50.6969 9.89831C51.6473 8.80931 52.7165 7.8193 54.0233 7.2253C55.8251 6.4333 57.8051 6.0571 59.7653 6.1561C59.5079 6.8689 59.2307 7.5817 58.9733 8.29451C59.4881 7.9381 60.2801 7.3639 61.1909 6.5719C62.9135 5.0077 63.0917 4.3147 64.4777 3.5425C64.7153 3.4039 65.8043 2.8099 67.3091 2.5723C68.2595 2.4337 69.0515 2.4535 69.4673 2.4733C69.4673 2.4733 70.1603 2.5129 70.7543 2.6119C72.2987 2.8693 73.4867 3.7009 75.2885 5.1265C76.2389 5.8789 77.1497 6.7699 78.3179 7.1659C77.9615 5.9581 77.2685 4.8493 76.2785 4.0771C78.6347 3.8197 80.5553 4.0573 81.8222 4.2949C83.4267 4.6117 85.0303 4.9285 86.6937 6.1363C87.3867 6.6313 88.7727 7.66091 89.5647 9.54191C90.4352 11.6011 90.3166 14.2147 88.9903 16.3333Z" fill="#011838"/>
<path d="M76.833 32.9059C76.6746 34.9453 76.5558 36.9649 76.3974 39.0043C72.2592 39.7171 68.121 40.4893 64.0026 41.3407C63.8244 39.0835 63.3294 36.8461 62.5176 34.7473C67.1706 33.4999 72.0018 32.8861 76.833 32.9059Z" fill="#FF785B"/>
<path d="M21.0763 77.7528C20.4427 77.238 19.6705 76.941 18.8587 76.743C18.0667 76.5648 17.2549 76.4856 16.4431 76.4856V89.712C15.7897 88.8603 14.7799 88.3064 13.7701 87.93C11.2357 86.9997 9.03791 87.2967 8.16671 87.4546C7.13711 87.6526 5.03831 88.227 3.19691 90.009C1.31591 91.8303 0.761509 93.9093 0.444709 95.0187C-0.0700918 96.8793 -0.0106919 98.3643 0.0487081 100.068C0.127909 102.186 0.167509 103.374 0.642709 104.7C2.00891 108.423 6.26591 111.393 10.3051 111.215C12.1465 111.135 13.7305 110.403 14.0473 110.265C15.5125 109.572 16.5025 108.7 17.0767 108.087C17.1163 108.898 17.0965 109.69 17.1361 110.522H22.2841V79.7724C22.1851 78.9804 21.7099 78.2676 21.0763 77.7528ZM16.2649 102.859C16.1065 103.314 15.7897 104.106 15.0571 104.859C14.5027 105.433 13.9681 105.73 13.7503 105.849C12.2851 106.621 10.8397 106.423 10.2853 106.344C9.82991 106.265 9.17651 106.166 8.46371 105.75C7.41431 105.136 6.91931 104.285 6.74111 103.968C6.14711 102.918 6.08771 101.928 6.08771 101.433C6.08771 100.008 6.08771 98.5827 6.06791 97.1566C6.08771 96.6813 6.18671 95.9686 6.56291 95.1963C6.80051 94.6816 7.63211 93.1377 9.51311 92.4644C10.8199 92.0086 12.3049 92.088 13.5523 92.7016C14.7997 93.2956 15.7699 94.4247 16.2451 95.7314V102.859H16.2649Z" fill="#011838"/>
<path d="M34.56 88.1476V110.403H28.7784L28.6794 88.1476H34.56Z" fill="#011838"/>
<path d="M58.3795 103.81C58.4587 106.918 56.1421 108.978 55.9441 109.156C54.3799 110.502 52.6969 110.661 50.2417 110.898C47.3311 111.175 45.0739 110.581 44.1631 110.245C43.1533 109.869 42.0643 109.294 42.0643 109.294C41.7079 109.096 41.4109 108.938 41.1931 108.799C41.4901 108.126 41.8069 107.433 42.1039 106.76C42.4009 106.087 42.6979 105.394 43.0147 104.721C44.3611 105.433 45.5491 105.849 46.4203 106.126C48.3409 106.701 49.4893 106.72 50.0041 106.72C51.4891 106.681 52.0633 106.324 52.2811 106.166C52.4791 106.027 53.2711 105.433 53.3305 104.483C53.3701 103.731 52.9345 103.156 52.7167 102.899C51.9049 101.909 50.7169 101.632 50.1823 101.513C47.8855 100.959 45.4105 100.365 43.9255 99.0582C41.9059 97.2557 41.9455 94.3258 41.9653 93.9298C41.9851 93.4544 42.1039 90.8804 44.0839 89.0788C45.8857 87.4351 48.1033 87.4351 50.5783 87.4351C52.1227 87.4351 54.6373 87.6331 57.6073 88.8612C57.0133 90.1678 56.3995 91.4941 55.8055 92.8007C54.3601 91.9891 52.6177 91.7714 50.9545 91.6528C50.3803 91.6127 49.8061 91.5734 49.2319 91.6724C48.7567 91.7322 48.1231 91.8901 47.6479 92.3262C47.0539 92.9202 46.8757 93.9887 47.0935 94.6817C47.7271 96.6028 51.3901 95.4541 54.7957 97.8702C55.4293 98.2662 58.3003 100.424 58.3795 103.81Z" fill="#011838"/>
<path d="M80.1396 104.938C80.3772 106.404 80.7336 107.889 81.189 109.294C78.417 110.779 75.1896 111.373 72.0612 110.938C70.6554 110.74 67.7844 110.304 65.3292 107.948C62.6364 105.354 62.2206 102.108 62.0424 100.821C61.884 99.5531 61.2306 94.662 64.6164 90.9401C67.3488 87.93 71.0316 87.5144 72.7146 87.336C76.8924 86.8811 80.1198 88.3064 81.4266 88.9994C80.8524 90.405 80.2782 91.8311 79.704 93.2564C78.8724 92.7221 76.041 91.0391 72.6354 91.7518C71.8632 91.9105 70.4178 92.2271 69.1902 93.4348C67.4874 95.0981 67.329 97.2958 67.2498 98.4641C67.1904 99.315 67.0716 101.613 68.4972 103.791C68.8338 104.305 69.4872 105.255 70.7148 105.928C71.9226 106.582 73.0512 106.621 74.0016 106.641C75.4272 106.681 76.4964 106.404 77.1498 106.206C78.219 105.87 79.209 105.433 80.1396 104.938Z" fill="#011838"/>
<path d="M96.7319 87.2762C90.6536 87.2762 85.7036 92.583 85.7036 99.1366C85.7036 105.69 90.6332 110.997 96.7319 110.997C102.831 110.997 107.76 105.69 107.76 99.1366C107.76 92.583 102.831 87.2762 96.7319 87.2762ZM96.7712 106.779C93.5042 106.779 90.8516 103.354 90.8516 99.117C90.8516 94.8796 93.5042 91.4547 96.7712 91.4547C100.038 91.4547 102.672 94.8796 102.672 99.117C102.672 103.354 100.019 106.779 96.7712 106.779Z" fill="#011838"/>
<path d="M156.132 100.899C156.211 100.305 156.251 99.6914 156.251 99.0778C156.251 98.2661 156.171 97.4545 156.053 96.6821C155.103 91.2764 151.004 87.2174 146.073 87.2174C140.451 87.2174 135.897 92.5241 135.897 99.0778C135.897 105.631 140.451 110.938 146.073 110.938C148.944 110.938 151.539 109.552 153.38 107.334L150.39 104.344C149.361 105.81 147.915 106.72 146.311 106.72C143.658 106.72 141.441 104.245 140.847 100.899H156.132ZM146.311 91.3754C148.866 91.3754 151.023 93.672 151.716 96.84H140.906C141.618 93.6925 143.757 91.3754 146.311 91.3754Z" fill="#011838"/>
<path d="M133.164 87.8711L124.63 110.304L119.541 110.383L110.968 87.8311H116.532L122.195 104.701L127.719 87.8711H133.164Z" fill="#011838"/>
<path d="M32.0255 85.693C35.4373 85.693 38.2031 82.9268 38.2031 79.5151C38.2031 76.1033 35.4373 73.3375 32.0255 73.3375C28.6138 73.3375 25.8479 76.1033 25.8479 79.5151C25.8479 82.9268 28.6138 85.693 32.0255 85.693Z" fill="#FF785B"/>
<path d="M161.241 82.4653C162.531 82.4653 163.577 81.4191 163.577 80.1288C163.577 78.8384 162.531 77.7924 161.241 77.7924C159.951 77.7924 158.904 78.8384 158.904 80.1288C158.904 81.4191 159.951 82.4653 161.241 82.4653Z" fill="#FF785B"/>
<path d="M169.2 82.4653C170.49 82.4653 171.537 81.4191 171.537 80.1288C171.537 78.8384 170.49 77.7924 169.2 77.7924C167.91 77.7924 166.863 78.8384 166.863 80.1288C166.863 81.4191 167.91 82.4653 169.2 82.4653Z" fill="#FF785B"/>
<path d="M177.338 82.4653C178.628 82.4653 179.674 81.4191 179.674 80.1288C179.674 78.8384 178.628 77.7924 177.338 77.7924C176.047 77.7924 175.002 78.8384 175.002 80.1288C175.002 81.4191 176.047 82.4653 177.338 82.4653Z" fill="#FF785B"/>
<path d="M161.22 95.2961C161.22 92.484 161.142 90.0688 160.944 87.831L165.458 87.8515L165.675 92.5438H165.953C167.497 89.3365 171.24 87.3164 175.398 87.3164C176.11 87.3164 176.586 87.3565 177.159 87.4555V91.5538C176.526 91.4548 175.893 91.4155 175.041 91.4155C170.665 91.4155 167.577 93.7318 166.725 96.9988C166.587 97.5928 166.448 98.2858 166.448 99.018V111.769L161.22 111.75V95.2961Z" fill="#011838"/>
</svg>
