<svg width="47" height="48" viewBox="0 0 47 48" fill="none" xmlns="http://www.w3.org/2000/svg">
<path fill-rule="evenodd" clip-rule="evenodd" d="M35.557 23.7461C39.8078 26.3516 43.6308 27.5859 46.9491 27.2969C47.5223 38.5664 43.223 45.2227 35.6014 48C28.2381 45.3984 23.8944 39.0156 24.2052 27.125C28.2936 27.4197 32.3466 26.2133 35.557 23.7461ZM25.3921 4.73828L33.7565 12.3164H25.3921V4.73828ZM8.58648 21.875H25.489C26.5951 21.875 26.7404 23.3398 26.0218 23.8281C25.6868 23.8867 25.3557 23.9375 25.0207 23.9805H8.59859C7.29871 23.9805 7.29871 21.8984 8.59859 21.8789L8.58648 21.875ZM8.58648 28.4141H20.3702C20.4025 29.1328 20.455 29.832 20.5195 30.5156H8.59859C7.29063 30.5156 7.30678 28.4141 8.59859 28.4141H8.58648ZM8.58648 34.9531H21.1856C21.339 35.6758 21.5126 36.3789 21.7064 37.0547H8.59859C7.29063 37.0547 7.30678 34.9531 8.59859 34.9531H8.58648ZM8.58648 15.3359H18.3114C19.6193 15.3359 19.6032 17.4336 18.3114 17.4336H8.59859C7.29063 17.4336 7.30274 15.3359 8.59859 15.3359H8.58648ZM8.58648 9.25391H13.9354C15.2231 9.25391 15.2393 11.3516 13.9354 11.3516H8.59859C7.29063 11.3516 7.30678 9.25391 8.59859 9.25391H8.58648ZM38.4111 13.4063C38.4118 13.1127 38.3131 12.8269 38.1301 12.5927C37.9471 12.3585 37.6899 12.1887 37.3978 12.1094L25.0772 0.496095C24.9471 0.340859 24.7828 0.215739 24.5963 0.129901C24.4099 0.0440619 24.2059 -0.000321323 23.9993 1.7512e-06H2.50288C1.83907 1.7512e-06 1.20246 0.255163 0.733075 0.709352C0.263695 1.16354 0 1.77956 0 2.42188L0 43.8867C0.00106754 44.5287 0.265105 45.1441 0.734254 45.5981C1.2034 46.0521 1.8394 46.3076 2.50288 46.3086H26.6435C25.8838 45.4626 25.1979 44.5572 24.5928 43.6016H2.79353V2.69141H22.6066V13.6719C22.6061 13.8502 22.6419 14.0269 22.7121 14.1918C22.7822 14.3567 22.8853 14.5066 23.0155 14.6329C23.1456 14.7591 23.3002 14.8593 23.4704 14.9277C23.6406 14.9961 23.8231 15.0313 24.0074 15.0313H35.6135V19.6602C36.5608 20.2383 37.4933 20.7656 38.4111 21.2422V13.4063ZM35.6458 27.6016C38.5483 29.3789 41.1683 30.2227 43.4168 30.0234C43.8205 37.7109 40.8736 42.25 35.6781 44.1406C35.6452 44.1306 35.6128 44.1189 35.5812 44.1055V27.6523L35.6458 27.6016ZM35.561 25.1367C39.3234 27.4453 42.7265 28.5391 45.6533 28.2813C46.1619 38.2578 42.3551 44.1484 35.6054 46.6055C29.0656 44.3047 25.2266 38.6719 25.5132 28.125C29.1322 28.3859 32.7198 27.3175 35.561 25.1328V25.1367Z" fill="black"/>
</svg>
