<svg width="47" height="45" viewBox="0 0 47 45" fill="none" xmlns="http://www.w3.org/2000/svg">
<path d="M0 30.642V45H47V30.642H0ZM44.9828 43.249H2.01717V32.393H4.03433V35.0195H6.0515V32.2179H8.06867V37.6459H10.0858V32.2179H13.1116V35.0195H15.1288V32.2179H17.5494V37.6459H19.5665V32.2179H22.3906V35.0195H24.4077V32.2179H27.2318V37.6459H29.2489V32.2179H31.6695V35.0195H33.6867V32.2179H36.7124V37.6459H38.7296V32.2179H40.9485V35.0195H42.9657V32.2179H44.9828V43.249ZM38.9313 4.55253H26.2232V0H20.7768V4.55253H8.06867L2.82403 27.8405H44.3777L38.9313 4.55253ZM22.794 1.75097H24.206V4.55253H22.794V1.75097ZM9.6824 6.3035H37.3176L41.7554 26.0895H5.24463L9.6824 6.3035Z" fill="black"/>
<path d="M22.1889 12.0816H20.1717L17.3477 15.0583C16.9442 15.2334 16.7425 15.5836 16.3391 15.9338V8.22949H14.7253V20.4863H16.5408V17.3346L17.3477 16.4591L20.7768 20.4863H22.9957L18.558 15.5836L22.1889 12.0816ZM30.661 13.3073C30.2575 12.6069 29.2489 11.9065 27.6352 11.9065C25.4163 11.9065 23.1974 13.4824 23.1974 16.284C23.1974 18.5602 25.0129 20.3112 27.2318 20.3112C28.6438 20.3112 29.8541 19.6108 30.2575 18.9104V19.7859C30.2575 21.8871 28.8455 22.7626 27.2318 22.7626C26.0215 22.7626 25.0129 22.4124 24.4077 22.0622L24.206 23.463C25.0129 23.9882 26.2232 24.1633 27.4335 24.1633C28.6438 24.1633 30.0558 23.9882 30.8627 23.1128C31.8713 22.4124 32.2747 21.1867 32.2747 19.2606V12.0816H30.661V13.3073ZM30.4592 16.8093C30.4592 16.9844 30.4592 17.3346 30.2575 17.6847C29.8541 18.7353 28.8455 19.2606 27.8369 19.2606C26.0215 19.2606 25.0129 17.8598 25.0129 16.284C25.0129 14.3579 26.2232 13.1322 27.8369 13.1322C29.0472 13.1322 30.0558 13.8326 30.2575 14.7081V16.8093H30.4592Z" fill="black"/>
</svg>
