<svg width="48" height="48" viewBox="0 0 48 48" fill="none" xmlns="http://www.w3.org/2000/svg">
<g filter="url(#filter0_i_5_22)">
<path d="M24 0C27.1826 0 30.2348 1.26428 32.4853 3.51472C34.7357 5.76515 36 8.8174 36 12C36 15.1826 34.7357 18.2348 32.4853 20.4853C30.2348 22.7357 27.1826 24 24 24C20.8174 24 17.7652 22.7357 15.5147 20.4853C13.2643 18.2348 12 15.1826 12 12C12 8.8174 13.2643 5.76515 15.5147 3.51472C17.7652 1.26428 20.8174 0 24 0ZM24 6C22.4087 6 20.8826 6.63214 19.7574 7.75736C18.6321 8.88258 18 10.4087 18 12C18 13.5913 18.6321 15.1174 19.7574 16.2426C20.8826 17.3679 22.4087 18 24 18C25.5913 18 27.1174 17.3679 28.2426 16.2426C29.3679 15.1174 30 13.5913 30 12C30 10.4087 29.3679 8.88258 28.2426 7.75736C27.1174 6.63214 25.5913 6 24 6ZM24 27C32.01 27 48 30.99 48 39V48H0V39C0 30.99 15.99 27 24 27ZM24 32.7C15.09 32.7 5.7 37.08 5.7 39V42.3H42.3V39C42.3 37.08 32.91 32.7 24 32.7Z" fill="black"/>
</g>
<path d="M5.2 42.3V42.8H5.7H42.3H42.8V42.3V39C42.8 38.5695 42.5479 38.1725 42.2502 37.8429C41.9379 37.4972 41.4995 37.1424 40.9712 36.7898C39.9118 36.0825 38.4238 35.3395 36.6712 34.6635C33.1656 33.3114 28.5291 32.2 24 32.2C19.4709 32.2 14.8344 33.3114 11.3288 34.6635C9.57616 35.3395 8.08822 36.0825 7.02879 36.7898C6.50054 37.1424 6.06208 37.4972 5.74984 37.8429C5.45209 38.1725 5.2 38.5695 5.2 39V42.3ZM24 0.5C27.05 0.5 29.9751 1.7116 32.1317 3.86827C34.2884 6.02494 35.5 8.95001 35.5 12C35.5 15.05 34.2884 17.9751 32.1317 20.1317C29.9751 22.2884 27.05 23.5 24 23.5C20.95 23.5 18.0249 22.2884 15.8683 20.1317C13.7116 17.9751 12.5 15.05 12.5 12C12.5 8.95001 13.7116 6.02494 15.8683 3.86827C18.0249 1.7116 20.95 0.5 24 0.5ZM24 5.5C22.2761 5.5 20.6228 6.18482 19.4038 7.40381C18.1848 8.62279 17.5 10.2761 17.5 12C17.5 13.7239 18.1848 15.3772 19.4038 16.5962C20.6228 17.8152 22.2761 18.5 24 18.5C25.7239 18.5 27.3772 17.8152 28.5962 16.5962C29.8152 15.3772 30.5 13.7239 30.5 12C30.5 10.2761 29.8152 8.62279 28.5962 7.40381C27.3772 6.18482 25.7239 5.5 24 5.5ZM24 27.5C27.943 27.5 33.8798 28.4859 38.8181 30.4605C41.2869 31.4476 43.4746 32.6696 45.0371 34.113C46.5961 35.5532 47.5 37.1806 47.5 39V47.5H0.5V39C0.5 37.1806 1.40394 35.5532 2.96288 34.113C4.52541 32.6696 6.71313 31.4476 9.18188 30.4605C14.1202 28.4859 20.057 27.5 24 27.5Z" stroke="black"/>
<defs>
<filter id="filter0_i_5_22" x="0" y="0" width="48" height="52" filterUnits="userSpaceOnUse" color-interpolation-filters="sRGB">
<feFlood flood-opacity="0" result="BackgroundImageFix"/>
<feBlend mode="normal" in="SourceGraphic" in2="BackgroundImageFix" result="shape"/>
<feColorMatrix in="SourceAlpha" type="matrix" values="0 0 0 0 0 0 0 0 0 0 0 0 0 0 0 0 0 0 127 0" result="hardAlpha"/>
<feOffset dy="4"/>
<feGaussianBlur stdDeviation="2"/>
<feComposite in2="hardAlpha" operator="arithmetic" k2="-1" k3="1"/>
<feColorMatrix type="matrix" values="0 0 0 0 0 0 0 0 0 0 0 0 0 0 0 0 0 0 0.25 0"/>
<feBlend mode="normal" in2="shape" result="effect1_innerShadow_5_22"/>
</filter>
</defs>
</svg>
